<svg xmlns="http://www.w3.org/2000/svg" width="1200" height="460" viewBox="0 0 1200 460" role="img" aria-labelledby="title desc">
  <title id="title">capcap README hero concept</title>
  <desc id="desc">A native macOS screenshot workflow showing capture bounds, annotations, a floating toolbar, and the double Command shortcut.</desc>
  <defs><linearGradient id="capBg" x1="0" y1="0" x2="1" y2="1"><stop stop-color="#F7FCFC"/><stop offset="1" stop-color="#E7F5F3"/></linearGradient></defs>
  <rect width="1200" height="460" rx="28" fill="url(#capBg)"/>
  <text x="70" y="72" fill="#50817C" font-family="ui-monospace, SFMono-Regular, Menlo, monospace" font-size="13" font-weight="700" letter-spacing="2">NATIVE macOS SCREENSHOT TOOL</text>
  <text x="66" y="206" fill="#092D2C" font-family="Arial, Helvetica, sans-serif" font-size="82" font-weight="800" letter-spacing="-4">capcap</text>
  <text x="70" y="254" fill="#315B57" font-family="Arial, Helvetica, sans-serif" font-size="23">双击 ⌘，截图、标注、长截图和分享一气呵成。</text>
  <g transform="translate(70 316)">
    <rect width="72" height="56" rx="13" fill="#FFFFFF" stroke="#B9D8D4"/>
    <text x="36" y="38" text-anchor="middle" fill="#0C7770" font-family="Arial, Helvetica, sans-serif" font-size="30" font-weight="700">⌘</text>
    <text x="87" y="22" fill="#7C9895" font-family="Arial, Helvetica, sans-serif" font-size="11" font-weight="700">DOUBLE TAP</text>
    <text x="87" y="45" fill="#123E3B" font-family="Arial, Helvetica, sans-serif" font-size="18" font-weight="700">随手截，接着改</text>
  </g>
  <g transform="translate(600 64)">
    <rect width="530" height="324" rx="24" fill="#173F4A"/>
    <circle cx="24" cy="22" r="5" fill="#FF5F57"/><circle cx="42" cy="22" r="5" fill="#FFBD2E"/><circle cx="60" cy="22" r="5" fill="#28C840"/>
    <rect x="29" y="54" width="472" height="218" rx="12" fill="#70B8D5"/>
    <path d="M29 217c72-61 118-18 176-71 68-62 143-37 296 36v90H29z" fill="#387C83"/>
    <path d="M36 62H494V264H36z" fill="none" stroke="#22E6B7" stroke-width="3" stroke-dasharray="8 7"/>
    <rect x="31" y="57" width="10" height="10" fill="#22E6B7"/><rect x="489" y="57" width="10" height="10" fill="#22E6B7"/><rect x="31" y="259" width="10" height="10" fill="#22E6B7"/><rect x="489" y="259" width="10" height="10" fill="#22E6B7"/>
    <path d="M155 196C206 130 260 146 323 102" fill="none" stroke="#FF5147" stroke-width="6" stroke-linecap="round"/>
    <path d="m307 95 19 5-8 18" fill="none" stroke="#FF5147" stroke-width="6" stroke-linecap="round" stroke-linejoin="round"/>
    <circle cx="147" cy="204" r="18" fill="#FF5147"/><text x="147" y="211" text-anchor="middle" fill="#FFF" font-family="Arial, Helvetica, sans-serif" font-size="18" font-weight="700">1</text>
    <rect x="76" y="288" width="378" height="54" rx="17" fill="#0D2229"/>
    <g fill="none" stroke="#D8E7E8" stroke-width="2">
      <rect x="99" y="305" width="20" height="18"/><circle cx="151" cy="314" r="10"/><path d="M187 323l18-18M199 305h6v6"/><path d="M239 323l10-18 10 18"/><path d="M291 306v17M283 314h16"/>
    </g>
    <rect x="334" y="299" width="42" height="34" rx="10" fill="#0C8E83"/><path d="m345 316 7 7 14-17" fill="none" stroke="#FFF" stroke-width="3"/>
    <path d="M409 305v18M400 314h18" stroke="#D8E7E8" stroke-width="2"/>
  </g>
</svg>
