<svg xmlns="http://www.w3.org/2000/svg" width="1200" height="460" viewBox="0 0 1200 460" role="img" aria-labelledby="title desc">
  <title id="title">Betterleaks README hero concept</title>
  <desc id="desc">A black and white security scanner title built around a secret token being found, filtered, and validated.</desc>
  <rect width="1200" height="460" rx="28" fill="#090A0B"/>
  <path d="M70 64H1130" stroke="#26282A"/>
  <circle cx="1086" cy="64" r="5" fill="#E94646"/>
  <circle cx="1108" cy="64" r="5" fill="#4A4D50"/>
  <circle cx="1130" cy="64" r="5" fill="#4A4D50"/>
  <text x="70" y="110" fill="#8D9297" font-family="ui-monospace, SFMono-Regular, Menlo, monospace" font-size="14" font-weight="700" letter-spacing="2.2">SECRETS SCANNER / 01</text>
  <text x="66" y="202" fill="#F5F6F7" font-family="Arial, Helvetica, sans-serif" font-size="72" font-weight="800" letter-spacing="-3">Betterleaks</text>
  <text x="70" y="252" fill="#B9BDC1" font-family="Arial, Helvetica, sans-serif" font-size="23">Catch secrets. Cut false positives.</text>
  <text x="70" y="284" fill="#B9BDC1" font-family="Arial, Helvetica, sans-serif" font-size="23">Check what is still live.</text>
  <g font-family="ui-monospace, SFMono-Regular, Menlo, monospace" font-size="13" font-weight="700">
    <rect x="70" y="337" width="86" height="34" rx="17" fill="#17191B" stroke="#303337"/>
    <text x="91" y="359" fill="#D9DCDF">FAST</text>
    <rect x="166" y="337" width="126" height="34" rx="17" fill="#17191B" stroke="#303337"/>
    <text x="185" y="359" fill="#D9DCDF">VALIDATION</text>
    <rect x="302" y="337" width="112" height="34" rx="17" fill="#17191B" stroke="#303337"/>
    <text x="323" y="359" fill="#D9DCDF">PORTABLE</text>
  </g>
  <g transform="translate(570 92)">
    <rect width="560" height="302" rx="20" fill="#101214" stroke="#2A2D30"/>
    <text x="28" y="38" fill="#73787D" font-family="ui-monospace, SFMono-Regular, Menlo, monospace" font-size="12" letter-spacing="1.5">SCAN / CANDIDATE 0042</text>
    <rect x="28" y="62" width="504" height="76" rx="10" fill="#08090A" stroke="#26292C"/>
    <text x="48" y="107" fill="#BFC3C7" font-family="ui-monospace, SFMono-Regular, Menlo, monospace" font-size="18">ghp_••••••••••••••</text>
    <line x1="281" y1="82" x2="281" y2="119" stroke="#E94646" stroke-width="2"/>
    <circle cx="281" cy="100" r="8" fill="#E94646"/>
    <circle cx="281" cy="100" r="16" fill="none" stroke="#E94646" stroke-opacity=".35"/>
    <text x="416" y="107" fill="#E94646" font-family="ui-monospace, SFMono-Regular, Menlo, monospace" font-size="12" font-weight="700">SECRET FOUND</text>
    <g transform="translate(28 166)" font-family="ui-monospace, SFMono-Regular, Menlo, monospace">
      <rect width="142" height="70" rx="10" fill="#17191B" stroke="#323538"/>
      <text x="18" y="28" fill="#777C81" font-size="11">01</text><text x="18" y="51" fill="#F2F3F4" font-size="14" font-weight="700">FIND</text>
      <path d="M150 35H176" stroke="#555A5F"/><path d="m170 29 6 6-6 6" fill="none" stroke="#555A5F"/>
      <rect x="184" width="142" height="70" rx="10" fill="#17191B" stroke="#323538"/>
      <text x="202" y="28" fill="#777C81" font-size="11">02</text><text x="202" y="51" fill="#F2F3F4" font-size="14" font-weight="700">FILTER</text>
      <path d="M334 35H360" stroke="#555A5F"/><path d="m354 29 6 6-6 6" fill="none" stroke="#555A5F"/>
      <rect x="368" width="136" height="70" rx="10" fill="#E94646"/>
      <text x="386" y="28" fill="#FFD4D4" font-size="11">03</text><text x="386" y="51" fill="#FFFFFF" font-size="14" font-weight="700">VALIDATE</text>
    </g>
    <text x="28" y="276" fill="#686D72" font-family="ui-monospace, SFMono-Regular, Menlo, monospace" font-size="11">GIT · GITHUB · GITLAB · S3 · HUGGING FACE</text>
  </g>
</svg>
