<svg xmlns="http://www.w3.org/2000/svg" width="1200" height="150" viewBox="0 0 1200 150" role="img" aria-labelledby="title desc">
  <title id="title">这些 README 已经在使用</title>
  <desc id="desc">oil-ppt、draw-ui 和 Selector 已经使用 beautify-github-readme 整理仓库主页。</desc>
  <rect width="1200" height="150" rx="28" fill="#F7F7F4"/>
  <path d="M0 45H1200M0 90H1200M120 0V150M240 0V150M360 0V150M480 0V150M600 0V150M720 0V150M840 0V150M960 0V150M1080 0V150" stroke="#E9E9E4" stroke-width="1"/>
  <text x="56" y="48" fill="#7B7E78" font-family="Arial, Helvetica, sans-serif" font-size="15" font-weight="700" letter-spacing="3">USED IN REAL REPOSITORIES</text>
  <rect x="56" y="66" width="58" height="5" rx="2.5" fill="#F3C737"/>
  <text x="56" y="120" fill="#171916" font-family="Arial, Helvetica, sans-serif" font-size="38" font-weight="800">这些 README 已经在使用</text>
  <g transform="translate(940 42)" font-family="Arial, Helvetica, sans-serif" font-size="14" font-weight="800">
    <rect width="74" height="44" rx="12" fill="#171916"/><text x="37" y="27" text-anchor="middle" fill="#FFF">PPT</text>
    <rect x="86" width="74" height="44" rx="12" fill="#1677FF"/><text x="123" y="27" text-anchor="middle" fill="#FFF">UI</text>
    <rect x="172" width="74" height="44" rx="12" fill="#F3C737"/><text x="209" y="27" text-anchor="middle" fill="#171916">DOM</text>
  </g>
</svg>
