<svg xmlns="http://www.w3.org/2000/svg" width="1200" height="150" viewBox="0 0 1200 150" role="img" aria-labelledby="title desc">
  <title id="title">五个项目，五种做法</title>
  <desc id="desc">真实开源项目的 README 标题视觉定制案例。</desc>
  <rect width="1200" height="150" rx="28" fill="#F7F7F4"/>
  <path d="M0 45H1200M0 90H1200M120 0V150M240 0V150M360 0V150M480 0V150M600 0V150M720 0V150M840 0V150M960 0V150M1080 0V150" stroke="#E9E9E4" stroke-width="1"/>
  <text x="56" y="48" fill="#7B7E78" font-family="Arial, Helvetica, sans-serif" font-size="15" font-weight="700" letter-spacing="3">REAL PROJECTS · FIVE DIRECTIONS</text>
  <rect x="56" y="66" width="58" height="5" rx="2.5" fill="#F3C737"/>
  <text x="56" y="120" fill="#171916" font-family="Arial, Helvetica, sans-serif" font-size="38" font-weight="800">五个项目，五种做法</text>
  <g transform="translate(1017 34)">
    <circle cx="0" cy="0" r="7" fill="#151714"/>
    <circle cx="30" cy="0" r="7" fill="#F05138"/>
    <circle cx="60" cy="0" r="7" fill="#1677FF"/>
    <circle cx="90" cy="0" r="7" fill="#7657FF"/>
    <circle cx="120" cy="0" r="7" fill="#13BFA6"/>
  </g>
</svg>
